<?xml version="1.0" encoding="iso-8859-1"?>
<!-- Generator: Adobe Illustrator 16.0.0, SVG Export Plug-In . SVG Version: 6.00 Build 0)  -->
<!DOCTYPE svg PUBLIC "-//W3C//DTD SVG 1.1//EN" "http://www.w3.org/Graphics/SVG/1.1/DTD/svg11.dtd">
<svg version="1.1" id="Capa_1" xmlns="http://www.w3.org/2000/svg" xmlns:xlink="http://www.w3.org/1999/xlink" x="0px" y="0px"
	 width="468.793px" height="468.793px" viewBox="0 0 468.793 468.793" style="enable-background:new 0 0 468.793 468.793;"
	 xml:space="preserve">
<g>
	<g>
		<path d="M443.97,209.599c-4.75-5.725-11.803-9.037-19.24-9.037H143.265l-2.73-14.188c-1.742-9.059-8.332-16.421-17.143-19.154
			l-71.917-22.307c-13.186-4.09-27.194,3.283-31.284,16.472c-4.09,13.187,3.284,27.193,16.472,31.284l57.604,17.867l43.904,192.632
			c1.529,8.146,6.91,14.744,14.044,18.061c-0.212,1.713-0.333,3.453-0.333,5.221c0,23.35,18.994,42.344,42.342,42.344
			c23.348,0,42.342-18.994,42.342-42.344c0-0.975-0.045-1.938-0.109-2.895h66.845c-0.066,0.959-0.111,1.922-0.111,2.895
			c0,23.35,18.995,42.344,42.343,42.344c23.349,0,42.344-18.994,42.344-42.344c0-1.043-0.053-2.074-0.127-3.1
			c10.698-1.297,19.521-9.365,21.553-20.182l40-172.991C450.673,222.866,448.719,215.324,443.97,209.599z M194.224,447.07
			c-11.371,0-20.621-9.25-20.621-20.621s9.25-20.621,20.621-20.621s20.621,9.25,20.621,20.621S205.595,447.07,194.224,447.07z
			 M345.532,447.07c-11.37,0-20.622-9.25-20.622-20.621s9.252-20.621,20.622-20.621s20.622,9.25,20.622,20.621
			S356.902,447.07,345.532,447.07z M360.063,361.288H188.729c-8.284,0-15-6.716-15-15s6.716-15,15-15h171.334
			c8.284,0,15,6.716,15,15S368.347,361.288,360.063,361.288z M360.063,281.288H188.729c-8.284,0-15-6.716-15-15s6.716-15,15-15
			h171.334c8.284,0,15,6.716,15,15S368.347,281.288,360.063,281.288z"/>
		<path d="M299.873,3.964C297.23,1.321,293.768,0,290.304,0s-6.928,1.321-9.569,3.964L225.869,58.83
			c-3.871,3.871-5.029,9.692-2.935,14.749c2.095,5.058,7.03,8.354,12.504,8.354h34.866v78.834c0,11.046,8.953,20,20,20
			c11.046,0,20-8.954,20-20V81.933h34.866c5.474,0,10.408-3.297,12.504-8.354c2.095-5.057,0.937-10.878-2.936-14.749L299.873,3.964z
			"/>
	</g>
</g>
<g>
</g>
<g>
</g>
<g>
</g>
<g>
</g>
<g>
</g>
<g>
</g>
<g>
</g>
<g>
</g>
<g>
</g>
<g>
</g>
<g>
</g>
<g>
</g>
<g>
</g>
<g>
</g>
<g>
</g>
</svg>
